#define bitmaps_width 160
#define bitmaps_height 16
static unsigned char bitmaps_bits[] = {
   0x01, 0x00, 0x00, 0x00, 0x00, 0x00, 0x00, 0x00, 0x00, 0x00, 0x00, 0x00,
   0x00, 0x00, 0x00, 0x00, 0x00, 0x00, 0x00, 0x80, 0x01, 0x00, 0x01, 0x00,
   0x01, 0x00, 0x01, 0x00, 0x01, 0x00, 0x01, 0x00, 0x01, 0x00, 0x01, 0x00,
   0x01, 0x00, 0x01, 0x80, 0x01, 0x00, 0x01, 0x00, 0x01, 0x00, 0x01, 0x00,
   0x01, 0x00, 0x01, 0x00, 0x01, 0x00, 0x01, 0x00, 0x01, 0x00, 0x01, 0x80,
   0x01, 0x00, 0x01, 0x00, 0x01, 0x00, 0x01, 0x00, 0x01, 0x00, 0x01, 0x00,
   0x01, 0x00, 0x01, 0x00, 0x01, 0x00, 0x01, 0x80, 0x01, 0x00, 0x01, 0x00,
   0x01, 0x00, 0x01, 0x00, 0x01, 0x00, 0x01, 0x00, 0x01, 0x00, 0x01, 0x00,
   0x01, 0x00, 0x01, 0x80, 0x01, 0x00, 0x01, 0x00, 0x01, 0x00, 0x01, 0x00,
   0x01, 0x00, 0x01, 0x00, 0x01, 0x00, 0x01, 0x00, 0x01, 0x00, 0x01, 0x80,
   0xff, 0xff, 0xff, 0xff, 0xff, 0xff, 0xff, 0xff, 0xff, 0xff, 0xff, 0xff,
   0xff, 0xff, 0xff, 0xff, 0xff, 0xff, 0xff, 0xff, 0x00, 0x00, 0x00, 0x00,
   0x00, 0x00, 0x00, 0x00, 0x00, 0x00, 0x00, 0x00, 0x00, 0x00, 0x00, 0x00,
   0x00, 0x00, 0x00, 0x00, 0x00, 0x60, 0x0c, 0x00, 0x00, 0x40, 0x0c, 0x00,
   0x00, 0x80, 0x03, 0x00, 0x00, 0x60, 0x0c, 0x00, 0x00, 0x80, 0x0c, 0x00,
   0x00, 0x90, 0x12, 0x00, 0x00, 0x60, 0x12, 0x00, 0x00, 0x40, 0x04, 0x00,
   0x00, 0x90, 0x12, 0x00, 0x00, 0xc0, 0x12, 0x00, 0x00, 0x80, 0x12, 0x00,
   0x00, 0x40, 0x12, 0x00, 0x00, 0x40, 0x04, 0x00, 0x00, 0x80, 0x12, 0x00,
   0x00, 0xa0, 0x12, 0x00, 0x00, 0x46, 0x12, 0x00, 0x00, 0x4c, 0x12, 0x00,
   0x00, 0x40, 0x04, 0x00, 0x00, 0x40, 0x12, 0x00, 0x00, 0x90, 0x12, 0x00,
   0x00, 0x20, 0x12, 0x00, 0x00, 0x40, 0x12, 0x00, 0x00, 0x40, 0x04, 0x00,
   0x00, 0x20, 0x12, 0x00, 0x00, 0xf0, 0x12, 0x00, 0x00, 0x10, 0x12, 0x00,
   0x00, 0x40, 0x12, 0x00, 0x00, 0x40, 0x04, 0x00, 0x00, 0x10, 0x12, 0x00,
   0x00, 0x80, 0x12, 0x00, 0x00, 0xf0, 0x0c, 0x00, 0x00, 0xe0, 0x0c, 0x00,
   0x00, 0x80, 0x03, 0x00, 0x00, 0xf0, 0x0c, 0x00, 0x00, 0x80, 0x0c, 0x00,
   0x00, 0x00, 0x00, 0x00, 0x00, 0x00, 0x00, 0x00, 0x00, 0x00, 0x00, 0x00,
   0x00, 0x00, 0x00, 0x00, 0x00, 0x00, 0x00, 0x00 };
