/* XPM */
static const char * fldigi_icon_48_xpm[] = {
"48 48 215 2",
"  	c None",
". 	c #000000",
"+ 	c #BFBFBF",
"@ 	c #050505",
"# 	c #1A1A1A",
"$ 	c #1F1F1F",
"% 	c #C5C5C5",
"& 	c #FEC1C1",
"* 	c #FDC5C5",
"= 	c #FEC2C2",
"- 	c #FFBFBF",
"; 	c #D5C4C4",
"> 	c #0C0C0C",
", 	c #FE0303",
"' 	c #FB0C0C",
") 	c #FD0606",
"! 	c #FE0000",
"~ 	c #4F0909",
"{ 	c #D1BFBF",
"] 	c #2F2F2F",
"^ 	c #303030",
"/ 	c #3C3C3C",
"( 	c #838383",
"_ 	c #C7C7C7",
": 	c #D9D9D9",
"< 	c #D7D7D7",
"[ 	c #C2C2C2",
"} 	c #C4C4C4",
"| 	c #C9C9C9",
"1 	c #9F9F9F",
"2 	c #DDDDDD",
"3 	c #DBDBDB",
"4 	c #CDCDCD",
"5 	c #8F8F8F",
"6 	c #414141",
"7 	c #343434",
"8 	c #313131",
"9 	c #010101",
"0 	c #292929",
"a 	c #8A8A8A",
"b 	c #A8A8A8",
"c 	c #B6B6B6",
"d 	c #CFCFCF",
"e 	c #DEDEDE",
"f 	c #DFDFDF",
"g 	c #E5E5E5",
"h 	c #E2E2E2",
"i 	c #A0A0A0",
"j 	c #7D7D7D",
"k 	c #1D1D1D",
"l 	c #767676",
"m 	c #888888",
"n 	c #9B9B9B",
"o 	c #D3D3D3",
"p 	c #C6C6C6",
"q 	c #EBEBEB",
"r 	c #DADADA",
"s 	c #AAAAAA",
"t 	c #858585",
"u 	c #747474",
"v 	c #232323",
"w 	c #171717",
"x 	c #818181",
"y 	c #979797",
"z 	c #AEAEAE",
"A 	c #E4E4E4",
"B 	c #D4D4D4",
"C 	c #B5B5B5",
"D 	c #E1E1E1",
"E 	c #BABABA",
"F 	c #9A9A9A",
"G 	c #989898",
"H 	c #030303",
"I 	c #070707",
"J 	c #242424",
"K 	c #C1C1C1",
"L 	c #E0E0E0",
"M 	c #B2B2B2",
"N 	c #363636",
"O 	c #060606",
"P 	c #020202",
"Q 	c #929292",
"R 	c #959595",
"S 	c #C8C8C8",
"T 	c #CECECE",
"U 	c #B0B0B0",
"V 	c #999999",
"W 	c #040404",
"X 	c #151515",
"Y 	c #606060",
"Z 	c #A2A2A2",
"` 	c #CBCBCB",
" .	c #919191",
"..	c #A4A4A4",
"+.	c #AFAFAF",
"@.	c #737373",
"#.	c #181818",
"$.	c #131313",
"%.	c #393939",
"&.	c #C3C3C3",
"*.	c #454545",
"=.	c #3A3A3A",
"-.	c #222222",
";.	c #333333",
">.	c #484848",
",.	c #A1A1A1",
"'.	c #616161",
").	c #0F0F0F",
"!.	c #C0C0C0",
"~.	c #808080",
"{.	c #404040",
"].	c #121212",
"^.	c #191919",
"/.	c #BDBDBD",
"(.	c #7E7E7E",
"_.	c #3F3F3F",
":.	c #161616",
"<.	c #090909",
"[.	c #212121",
"}.	c #777777",
"|.	c #BBBBBB",
"1.	c #3B3B3B",
"2.	c #5D5D5D",
"3.	c #A5A5A5",
"4.	c #727272",
"5.	c #272727",
"6.	c #101010",
"7.	c #9C9C9C",
"8.	c #B7B7B7",
"9.	c #B3B3B3",
"0.	c #080808",
"a.	c #262626",
"b.	c #ADADAD",
"c.	c #CCCCCC",
"d.	c #E9E9E9",
"e.	c #E8E8E8",
"f.	c #ACACAC",
"g.	c #2A2A2A",
"h.	c #323232",
"i.	c #DCDCDC",
"j.	c #D1D1D1",
"k.	c #E7E7E7",
"l.	c #D2D2D2",
"m.	c #0E0E0E",
"n.	c #0D0D0D",
"o.	c #4A4A4A",
"p.	c #8C8C8C",
"q.	c #B9B9B9",
"r.	c #7A7A7A",
"s.	c #525252",
"t.	c #373737",
"u.	c #7B7B7B",
"v.	c #E6E6E6",
"w.	c #A9A9A9",
"x.	c #6B6B6B",
"y.	c #141414",
"z.	c #757575",
"A.	c #D6D6D6",
"B.	c #E3E3E3",
"C.	c #6E6E6E",
"D.	c #0B0B0B",
"E.	c #1E1E1E",
"F.	c #EAEAEA",
"G.	c #B4B4B4",
"H.	c #D8D8D8",
"I.	c #9E9E9E",
"J.	c #444444",
"K.	c #ABABAB",
"L.	c #A6A6A6",
"M.	c #505050",
"N.	c #B1B1B1",
"O.	c #3E3E3E",
"P.	c #0A0A0A",
"Q.	c #878787",
"R.	c #EFEFEF",
"S.	c #8B8B8B",
"T.	c #4B4B4B",
"U.	c #4F4F4F",
"V.	c #CACACA",
"W.	c #EEEEEE",
"X.	c #434343",
"Y.	c #D5D5D5",
"Z.	c #7F7F7F",
"`.	c #5B5B5B",
" +	c #515151",
".+	c #868686",
"++	c #8E8E8E",
"@+	c #575757",
"#+	c #707070",
"$+	c #636363",
"%+	c #B8B8B8",
"&+	c #909090",
"*+	c #252525",
"=+	c #8D8D8D",
"-+	c #969696",
";+	c #282828",
">+	c #A3A3A3",
",+	c #BCBCBC",
"'+	c #A7A7A7",
")+	c #3D3D3D",
"!+	c #2E2E2E",
"~+	c #353535",
"{+	c #D0D0D0",
"]+	c #595959",
"^+	c #BEBEBE",
"/+	c #111111",
"(+	c #5E5E5E",
"_+	c #383838",
":+	c #939393",
"<+	c #464646",
"[+	c #2C2C2C",
"}+	c #717171",
"|+	c #898989",
"1+	c #494949",
"2+	c #555555",
". . . . . . . . + @ . . . . . . . . . . . . . . . . . . . . . . . + . . . . . . . . . . . . . . ",
". . . . . . . . + # . . . . . . . . . . . . . . . . . . . . . . . + . . . . . . . . . . . . . . ",
". . . . . . . . + $ . . . . . . . . . . . . . . . . . . . . . . . + . . . . . . . . . . . . . . ",
"% % % % % % % % % % % % % % % % % % % % % & * * * = - - - ; % % % % % % % % % % % % % % % % % % ",
"> > > > > > > > > > > > > > > > > > > > > , ' ' ' ) ! ! ! ~ > > > > > > > > > > > > > > > > > > ",
"+ + + + + + + + + + + + + + + + + + + + + - - - - - - - - { + + + + + + + + + + + + + + + + + + ",
"] ] ] ] ] ] ] ] ] ] ] ] ] ] ^ ] ] ] / ( _ : < [ } | 1 2 3 4 5 6 ^ ] ] ] 7 8 ] ] ] ] ] ] ] ] ] ] ",
". . . . . . . . . . . . . . 9 . . . 0 a b c d e f g 2 h } i j 0 9 . . . . . . . . . . . . . . . ",
". . . . . . . . . . . . . . . . . . k l m n o p 3 q h r s t u v . . . . . . . . . . . . . . . . ",
". . . . . . . . . . . . . . . . . 9 w x y z : _ A B C D E F G 0 . . H 9 . . . . . . . . . . . . ",
". . . . . . . . . . . . . . . I 9 . J t z % D K L d d r | M ( N 9 . O H . . . . . . . . . . . . ",
". . . . . . . . . . . . . . P > 9 . ] Q R S f D L T 4 e } U V 7 9 . H 9 . . . . . . . . . . . . ",
". . . . . P P . . . . . . 9 P W . . X Y Z e ` +  .( ..d 3 +.@.#.. . . . O H . . . . . . . . . . ",
". . . . . @ @ . . . . . . W P . . . P $.%.&.*.=.-.k ;.>.,.'.X @ . . . . ).O . . . . . . . . . . ",
". . . . . @ @ . . . . . . P 9 . . . . 9 . !.P . . . . . ~.{.. . . . . . ].I . . . . . . . . . . ",
". . . . . O O . . . . . . . . . . . P O ^./.$.H H H H W (._.P . . . . . :.<.. . . . . . . . . . ",
". . . . . H H . . . . . . . . . . . O [.}.|.Y 1.6 6 1.2.3.4.5.P . . . . 6.I . . . . . . . . . . ",
". . . . . . . . . . . . . . 9 9 . . ).u } A 4 7.8.9.7.: D d ~.W . . . 9 H 9 . . . . . . . . . . ",
". . . . . . . . . . . . . . H 0.. . a.b.&.c.d.o D L L e._ + f.g.9 . 0.@ . . . . . . . . . . . . ",
". . . . . . . . . . . . . . 9 0.9 . h.F c ` i.j.A e.k.2 l.C Q / 9 9 m.@ . . . . . . . . . . . . ",
". . . . . . . . . . . . . . . n.P . o.p.f.% q.A g e.q e e Z r.s.@ @ m.P . . . . . . . . . . . . ",
". . . . . . . . . . . . . . . 9 . . t.u.+ v.B i.Z w.: L d.|.x.7 O 9 P . I 9 . . . . . . . . . . ",
". . . . . . . . . . . . . H O @ . . y.z.c.v.A.+ b b ,.B.e.[ C.D.9 . . 9 <.9 . . . . . . . . . . ",
". . . . . . . . . . . . . H D.n.. . E.,.o B.e.A.!.z ..F.L 3 Z [.9 . W H . . . . . . . . . . . . ",
". . . . . . . . . . . . . . P n.9 . 1.c G.H.g F.k.g e.A ` 9.I.J.W . O W . . . . . . . . . . . . ",
". . . . . . . . . . . . . . W m.. W t.K.1 L.i.2 h i.v.D ..1 +.^ O 9 0.D.. . . . . . . . . . . . ",
". . . . . . . . . . . . . . H O P > M.5 t p.< g g D d.i.1 Q N.O.O @ ).D.. . . . . . . . . . . . ",
". . . . . . . . . . . . . . 9 P.H W o.Q.C p l.v.q R.i.i.d 1 S.T.I 9 P . . . . . . . . . . . . . ",
". . . . . . . . . . . . . . . O H . U.t +.l.V.V.e.W.k.r } S }.X.<.P W . . . . . . . . . . . . . ",
". . . . . . . . . . . . . . . . 9 . 1.x U g 2 Y.g g g D 3 l.Z.v H . 9 . D.H . . . . . . . . . . ",
". . . . . 9 9 . . . . . . 9 9 . . . O -.> 4 @.C.`. +C.}.!..+W 0.. . . . w <.. . . . . . . . . . ",
". . . . . W W . . . . . . P 9 . . . . P 9 % y.<.<.0.I m.++@+@ . . . . . :.<.. . . . . . . . . . ",
". . . . . 9 9 . . . . . . H 9 . . . O t.S.f ,.#+j u.$+n c.z  +I 9 . . . > @ . . . . . . . . . . ",
". . . . . . . . . . . . . . . . . . X ( | H.v.%+D 4 &+v.` d n *+W . 9 9 9 . . . . . . . . . . . ",
". . . . . . . . . . . . . . . . . . y.=+G.G.h [ F.d.j.A b +.-+;+P . 9 . . . . . . . . . . . . . ",
". . . . . . . . . . . . . . . H . . ] >+C U L B.k.e.h k.s b i *.O . 9 W . . . . . . . . . . . . ",
". . . . . . . . . . . . . . . D.P . %.M -+,+o d.i.A q 2 /.3.s  +0.W n.0.. . . . . . . . . . . . ",
". . . . . . . . . . . . . . H @ 9 . ] '+c V.L e.A 2 D B.S C i )+O 9 H 9 . . . . . . . . . . . . ",
". . . . . . . . . . . . . . O O . . !+f._ l.e.d.g 2 D e.S &.K.s.P.. . . . . . . . . . . . . . . ",
". . . . . . . . . . . . . . . P . 9 ~+f.E {+h d.e.g g L % !.R ]+D.9 P . . . . . . . . . . . . . ",
". . . . . . . . . . . . . . . O 9 O h.7.9.l.v.k.L B T 2 T ^+3.J.0.. 9 9 . . . . . . . . . . . . ",
". . . . . . . . . . . . . . . /+I D.X.Q L.e g q v.B.v.D B &.i (+P.W P.9 . . . . . . . . . . . . ",
". . . . . . . . . . . . . . . D.I O _+b /.A.2 d.v.F.d.A : %+L.T.0.O /+H . . . . . . . . . . . . ",
". . . . . . . . . . . . . . . m.P . ;.Q + 3 f A h F.q d : } :+<+W H m.W . . . . . . . . . . . . ",
". . . . . . . . . . . . . H 9 I 9 . [+a p v.g k.o % e i.B.j.p.J.O . H 9 W P . . . . . . . . . . ",
". . . . . . . . . . . . . I H . . . O 5.}+o |+t 1+X.C..+,+p.8 ).9 . . . y.0.. . . . . . . . . . ",
". . . . . 9 9 . . . . . . P 9 . . . . . . p X D.9 P O <.~.2+. . . . . . :.<.. . . . . . . . . . ",
". . . . . @ @ . . . . . . . . . . . . . . &.I . . . . . ~.T.. . . . . . #.P.. . . . . . . . . . "};
