/* XPM */
static char * flarq_xpm[] = {
"48 48 157 2 ",
"   c #010101",
".  c #0B0B0B",
"X  c #0F1010",
"o  c #131414",
"O  c #1B1C1C",
"+  c #242525",
"@  c #2B2B2C",
"#  c #2F3030",
"$  c #333334",
"%  c #3B3C3D",
"&  c #00005B",
"*  c #000163",
"=  c #0D0D62",
"-  c #00026C",
";  c #131365",
":  c #1B1B69",
">  c #010373",
",  c #00047C",
"<  c #292A71",
"1  c #232376",
"2  c #3C3C7D",
"3  c #444445",
"4  c #474849",
"5  c #4A4B4C",
"6  c #535455",
"7  c #575859",
"8  c #5B5C5D",
"9  c #5E5F60",
"0  c #5F6061",
"q  c #626364",
"w  c #666768",
"e  c #6B6C6D",
"r  c #6E6F70",
"t  c #6F7071",
"y  c #727475",
"u  c #767779",
"i  c #777879",
"p  c #7B7C7D",
"a  c #CC9272",
"s  c #CF9778",
"d  c #CF997B",
"f  c #D09A7D",
"g  c #000483",
"h  c #000589",
"j  c #000693",
"k  c #00079A",
"l  c #00089E",
"z  c #030BA4",
"x  c #0009AA",
"c  c #000AB4",
"v  c #000BBA",
"b  c #3539A3",
"n  c #575787",
"m  c #52528B",
"M  c #686991",
"N  c #6B6C9C",
"B  c #000BC3",
"V  c #000DCA",
"C  c #000ED3",
"Z  c #000EDB",
"A  c #000FE0",
"S  c #0010E5",
"D  c #0011ED",
"F  c #0E1EEC",
"G  c #0011F2",
"H  c #0013FE",
"J  c #4B54DA",
"K  c #7F8082",
"L  c #828285",
"P  c #858688",
"I  c #87898A",
"U  c #8A8C8D",
"Y  c #8D8F90",
"T  c #8F9192",
"R  c #939495",
"E  c #969799",
"W  c #97999A",
"Q  c #9B9C9E",
"!  c #A59F9D",
"~  c #BAA498",
"^  c #8687A2",
"/  c #9E9FA2",
"(  c #9D9EAA",
")  c #8788BB",
"_  c #9A9BB4",
"`  c #9EA0A1",
"'  c #A2A3A4",
"]  c #A5A6A9",
"[  c #A6A8AA",
"{  c #A9ABAD",
"}  c #BBABA3",
"|  c #BAB2AF",
" . c #ACAEB1",
".. c #B1AFB5",
"X. c #AFB1B3",
"o. c #B2B4B6",
"O. c #BEB6B2",
"+. c #B4B6B8",
"@. c #B7B8BA",
"#. c #BABBBC",
"$. c #D29E81",
"%. c #D3A185",
"&. c #D5A58A",
"*. c #D7A98E",
"=. c #C9A896",
"-. c #CAAC9B",
";. c #D6AB92",
":. c #D9AD94",
">. c #DAB097",
",. c #DCB39C",
"<. c #D7B7A3",
"1. c #DDB7A0",
"2. c #DEBAA3",
"3. c #DCBFAD",
"4. c #CEBEB4",
"5. c #E0BDA7",
"6. c #E1BEA9",
"7. c #D9C6BA",
"8. c #DDC2B1",
"9. c #E2C1AD",
"0. c #E4C6B2",
"q. c #E5C9B6",
"w. c #E7CCBA",
"e. c #E8CFBD",
"r. c #E9D0BF",
"t. c #B4B4C6",
"y. c #A3A6DF",
"u. c #B6BBFC",
"i. c #BFC1C3",
"p. c #C2C2C4",
"a. c #C8C9CB",
"s. c #D7CAC1",
"d. c #DBCEC5",
"f. c #CBCCD9",
"g. c #D2D2D3",
"h. c #DFD6D0",
"j. c #D7D8D9",
"k. c #DBDCDD",
"l. c #EAD4C3",
"z. c #E0D5CE",
"x. c #ECD7C8",
"c. c #EDDBCC",
"v. c #EFDED0",
"b. c #E4DFDB",
"n. c #E9E1DA",
"m. c #F0E1D4",
"M. c #F2E3D9",
"N. c #EBE8E5",
"B. c #E2E2E7",
"V. c #F0EFED",
"C. c #F2EBE5",
"Z. c #F2F0EF",
"A. c #F9F5F1",
"S. c #FBFAF7",
"D. c #FDFCFC",
"F. c #F3F4FB",
"G. c None",
/* pixels */
"G.G.G.G.G.G.G.G.G.G.G.G.G.G.G.G.G.G.G.G.G.G.G.G.G.G.G.G.G.G.G.G.G.G.G.G.G.G.G.G.G.G.G.G.G.G.G.G.",
"G.G.G.G.G.G.G.G.G.G.G.G.G.G.G.G.G.G.G.G.G.G.G.G.G.G.G.G.G.G.G.G.G.G.G.G.G.G.G.G.G.G.G.G.G.G.G.G.",
"G.G.G.G.G.G.G.G.G.G.G.G.G.G.G.G.G.G.G.G.G.G.G.G.G.G.G.G.G.G.G.G.G.G.G.G.G.G.G.G.G.G.G.G.G.G.G.G.",
"G.G.G.G.G.G.G.G.G.G.G.G.G.G.G.G.G.G.G.G.G.G.G.G.G.G.G.G.G.G.G.G.G.G.G.G.G.G.G.G.G.G.G.G.G.G.G.G.",
"G.G.G.G.G.G.G.G.G.G.G.G.G.G.G.G.G.G.G.G.G.G.G.G.G.G.G.G.G.G.G.G.G.G.G.G.G.G.G.G.G.G.G.G.G.G.G.G.",
"G.G.G.G.G.G.G.G.G.G.G.G.G.G.G.G.G.G.G.G.G.G.G.G.G.G.G.G.G.G.G.G.G.G.G.G.G.G.G.G.G.G.G.G.G.G.G.G.",
"G.G.G.G.G.G.G.G.G.G.G.G.G.G.G.G.G.G.G.G.G.G.G.G.G.G.G.G.G.G.G.G.G.G.G.G.G.G.G.G.G.G.G.G.G.G.G.G.",
"H G.G.G.G.G.G.G.G.G.G.G.G.G.G.G.G.G.G.G.G.G.G.G.G.G.G.G.G.G.G.G.G.G.G.G.G.G.G.G.G.G.G.G.G.G.G.G.",
"H H H G.G.G.G.G.G.G.G.G.G.G.G.G.G.G.G.G.G.G.G.G.G.G.G.G.G.G.G.G.G.G.G.G.G.G.G.G.G.G.G.G.G.G.G.G.",
"D G H H H G.G.G.G.G.G.G.G.G.G.G.G.G.G.G.G.G.G.G.G.G.G.G.G.G.G.G.G.G.G.G.G.G.G.G.G.G.G.G.G.G.G.G.",
"V Z S G H H H G.G.G.G.G.G.G.G.G.G.G.G.G.G.G.G.G.G.G.G.G.G.G.G.G.G.G.G.G.G.G.G.G.G.G.G.G.G.G.p.p.",
"c v V C A G H H H G.G.G.G.G.G.G.G.G.G.G.G.G.G.G.G.G.G.v.G.G.G.G.G.G.G.G.G.G.G.G.G.G.G.G.i.i.#.+.",
"k z x v B C A D H H G.G.G.G.G.G.G.G.G.G.G.G.G.x.c.v.v.c.v.v.G.G.G.G.G.G.G.G.G.G.G.i.#.+.o.X.{ ' ",
", h j l x c B V Z F u.D.G.G.G.G.G.G.G.G.e.r.x.x.c.c.c.c.v.v.v.v.v.G.G.G.G.G.G.a.+.X.X.' ! ! W W ",
"- > h h j l z c B J F.A.M.G.G.G.G.v.v.r.0.q.w.q.q.x.x.x.x.c.c.v.v.v.v.v.G.G.D.g.{ ` ` W W T U I ",
"* * - > , h j l z y.S.M.c.v.v.v.v.v.c.0.9.9.9.9.3.0.e.e.r.x.x.c.c.v.c.v.m.m.V.j.W T Y I P P M p ",
"& & * * - - > h b B.C.x.x.x.x.c.c.c.x.w.9.2.5.5.2.9.q.q.q.w.r.r.x.x.x.x.c.v.N.k.R L K p i y t r ",
"& & & & & * - > ) Z.c.r.r.r.x.x.c.w.2.1.>.,.,.9.w.c.c.x.q.9.q.q.e.e.e.x.x.x.n.k.R u t r w w q 9 ",
"& & & & & & & 1 f.n.r.q.r.r.r.x.r.,.%.*.&.*.,.x.m.c.m.v.c.q.9.9.0.0.q.w.w.x.z.g./ w w 0 8 8 7 6 ",
"& & & & & & & N B.w.9.q.9.q.q.r.e.,.*.%.*.,.e.c.c.c.c.v.v.c.x.9.6.6.9.0.0.w.s.g.{ 9 7 6 6 5 4 4 ",
"& & & & & & ; t.z.9.9.9.9.9.q.q.q.q.0.0.q.r.x.r.x.x.x.x.c.v.v.x.0.5.2.6.6.6.7.a.o.8 5 4 3 3 % % ",
"& & & & & & m g.8.2.3.2.5.9.9.9.9.q.q.q.w.w.e.r.r.r.x.x.x.x.x.v.c.w.2.,.2.2.3.p.#.0 % % % $ $ $ ",
"& & & & & = _ s.,.,.,.5.5.5.5.5.9.9.9.9.0.q.q.w.w.e.r.r.r.x.x.x.x.c.l.,.,.,.1.#.@.r $ $ @ @ + + ",
"& & & & & 2 p.2.>.,.,.,.1.,.5.5.5.6.9.9.9.9.0.0.q.q.q.w.w.e.r.r.e.x.x.x.1.;.:.| o.K @ + + + O O ",
"& & & & & ^ 4.;.*.>.>.>.,.>.,.1.1.1.5.5.5.9.9.9.9.9.9.q.w.w.w.r.e.l.l.x.w.,.&.} { R @ O O o o o ",
"& & & & < o.=.*.*.*.*.*.:.>.>.>.,.,.,.1.1.1.1.9.9.9.9.9.9.9.9.q.w.w.w.w.l.w.:.~ ] Q $ o o o X . ",
"& & & & M 4.$.%.%.%.%.*.*.*.*.:.:.:.>.,.,.,.1.1.,.9.9.9.9.9.9.9.0.6.0.q.w.e.0.=.` / 4 . . .   . ",
"& & & : ( o.G.f f %.%.%.%.&.*.*.*.:.:.:.:.,.,.,.,.,.,.2.,.9.9.9.6.2.6.0.0.0.e.3.! Q 9 .         ",
"& & & n  .G.G.G.G.f f %.f *.f *.*.:.*.*.*.:.:.:.>.>.,.,.,.,.9.2.5.5.1.5.9.0.0.0.~ R i .         ",
"& & ; ^ G.G.G.G.G.G.*.f f f f f f f f *.&.*.*.*.:.:.:.>.,.,.,.,.1.1.5.,.1.6.6.9.-.R P o         ",
"& & = G.G.G.G.G.G.G.1.*.f s s s f f :.*.&.&.&.*.&.*.:.:.:.>.,.>.1.>.1.1.,.,.5.6.G.G.G.          ",
"& & G.G.G.G.G.G.G.G.5.:.f s s s *.5.9.5.*.f f f &.&.&.&.*.&.:.:.=.,.,.,.,.:.,.3.G.G.G.G.        ",
"& & G.G.G.G.G.G.G.G.9.,.f a G.f *.e.0.6.:.$.>.5.:.%.%.%.*.*.*.*.%.=.:.:.:.:.G.G.G.G.G.G.        ",
"& G.G.G.G.G.G.G.G.G.G.,.f a G.f *.6.5.,.&.:.e.e.9.*.%.f $.%.$.%.*.$.*.*.:.:.G.G.G.G.G.G.G.      ",
"& G.G.G.G.G.G.G.G.G.G.G.G.G.G.a f %.%.%.%.:.r.e.5.6.q.,.$.s $.$.$.%.$.%.*.G.G.G.G.G.G.G.G.G.    ",
"G.G.G.G.G.G.G.G.G.G.G.G.G.G.G.a a a a s a f ,.:.*.9.e.9.;.a s d f $.$.G.G.G.G.G.G.G.G.G.G.G.    ",
"G.G.G.G.G.G.G.G.G.G.G.G.G.G.G.G.a a a a a a a a $.:.:.:.*.a a a d f G.G.G.G.G.G.G.G.G.G.G.G.G.  ",
"G.G.G.G.G.G.G.G.G.G.G.G.G.G.G.G.G.G.G.a a a a a a a f %.f a a a G.G.G.G.G.G.G.G.G.G.G.G.G.G.G.G.",
"G.G.G.G.G.G.G.G.G.G.G.G.G.G.G.G.G.G.G.G.a a a a a a a a a a a G.G.G.G.G.G.G.G.G.G.G.G.G.G.G.G.G.",
"G.G.G.G.G.G.G.G.G.G.G.G.G.G.G.G.G.G.G.G.G.G.G.G.a a a G.G.G.G.G.G.G.G.G.G.G.G.G.G.G.G.G.G.G.G.G.",
"G.G.G.G.G.G.G.G.G.G.G.G.G.G.G.G.G.G.G.G.G.G.G.G.G.G.G.G.G.G.G.G.G.G.G.G.G.G.G.G.G.G.G.G.G.G.G.G.",
"G.G.G.G.G.G.G.G.G.G.G.G.G.G.G.G.G.G.G.G.G.G.G.G.G.G.G.G.G.G.G.G.G.G.G.G.G.G.G.G.G.G.G.G.G.G.G.G.",
"G.G.G.G.G.G.G.G.G.G.G.G.G.G.G.G.G.G.G.G.G.G.G.G.G.G.G.G.G.G.G.G.G.G.G.G.G.G.G.G.G.G.G.G.G.G.G.G.",
"G.G.G.G.G.G.G.G.G.G.G.G.G.G.G.G.G.G.G.G.G.G.G.G.G.G.G.G.G.G.G.G.G.G.G.G.G.G.G.G.G.G.G.G.G.G.G.G.",
"G.G.G.G.G.G.G.G.G.G.G.G.G.G.G.G.G.G.G.G.G.G.G.G.G.G.G.G.G.G.G.G.G.G.G.G.G.G.G.G.G.G.G.G.G.G.G.G.",
"G.G.G.G.G.G.G.G.G.G.G.G.G.G.G.G.G.G.G.G.G.G.G.G.G.G.G.G.G.G.G.G.G.G.G.G.G.G.G.G.G.G.G.G.G.G.G.G.",
"G.G.G.G.G.G.G.G.G.G.G.G.G.G.G.G.G.G.G.G.G.G.G.G.G.G.G.G.G.G.G.G.G.G.G.G.G.G.G.G.G.G.G.G.G.G.G.G.",
"G.G.G.G.G.G.G.G.G.G.G.G.G.G.G.G.G.G.G.G.G.G.G.G.G.G.G.G.G.G.G.G.G.G.G.G.G.G.G.G.G.G.G.G.G.G.G.G."
};
