/* XPM */
static char * flarq_xpm[] = {
"48 48 924 2",
"  	c None",
". 	c #5B1E0E",
"+ 	c #7F381B",
"@ 	c #A7624B",
"# 	c #A8624E",
"$ 	c #652012",
"% 	c #90555F",
"& 	c #AA7A86",
"* 	c #D4B5BE",
"= 	c #5E231C",
"- 	c #540900",
"; 	c #AC5D55",
"> 	c #B4644F",
", 	c #CF7F58",
"' 	c #FCAD85",
") 	c #FBB18F",
"! 	c #BA7057",
"~ 	c #965140",
"{ 	c #4F1509",
"] 	c #3B1314",
"^ 	c #45151B",
"/ 	c #895156",
"( 	c #AB8687",
"_ 	c #D7C6C1",
": 	c #FFFFFD",
"< 	c #FFFFFE",
"[ 	c #A58088",
"} 	c #945D68",
"| 	c #642D34",
"1 	c #AC6352",
"2 	c #A45C49",
"3 	c #A35B46",
"4 	c #CC8C74",
"5 	c #F4B8A0",
"6 	c #FAC5A8",
"7 	c #FFD4B3",
"8 	c #FFD8B8",
"9 	c #FFDCBD",
"0 	c #FFCFAC",
"a 	c #E7A380",
"b 	c #A2563C",
"c 	c #984D37",
"d 	c #A2787A",
"e 	c #997474",
"f 	c #AA8B91",
"g 	c #D1C0C6",
"h 	c #CAB3BD",
"i 	c #FBE6F1",
"j 	c #F9FFFF",
"k 	c #F8FAFA",
"l 	c #FEFFFF",
"m 	c #F3F2EF",
"n 	c #E9D7D9",
"o 	c #AC9092",
"p 	c #AC8C8D",
"q 	c #926A6E",
"r 	c #9A737B",
"s 	c #9B747C",
"t 	c #9E573C",
"u 	c #98543D",
"v 	c #9A5F47",
"w 	c #BF8469",
"x 	c #E9AE90",
"y 	c #FFCAA8",
"z 	c #FFD9B6",
"A 	c #FFDFBA",
"B 	c #FDE1BA",
"C 	c #FDDEB8",
"D 	c #FEDBBB",
"E 	c #FBDBC3",
"F 	c #F8DBC5",
"G 	c #FFDCC3",
"H 	c #FFD1AF",
"I 	c #FBB891",
"J 	c #E79B74",
"K 	c #9A4E30",
"L 	c #9B5644",
"M 	c #7D4F54",
"N 	c #D0BCBE",
"O 	c #F5EDE7",
"P 	c #FCF4EE",
"Q 	c #FFFAFC",
"R 	c #FFFFFF",
"S 	c #C7BDC6",
"T 	c #C4B0BD",
"U 	c #F4F3F8",
"V 	c #FDFCFF",
"W 	c #FFFDFF",
"X 	c #F7FFFF",
"Y 	c #DEDCDC",
"Z 	c #E6E1E1",
"` 	c #FFFAF9",
" .	c #FFF3F5",
"..	c #FFF4F7",
"+.	c #E2D9DA",
"@.	c #C1AEB5",
"#.	c #C5A3AF",
"$.	c #7B5057",
"%.	c #7D2F24",
"&.	c #C87559",
"*.	c #EA9464",
"=.	c #FFA873",
"-.	c #FFB886",
";.	c #FFC193",
">.	c #FBBD92",
",.	c #FBBE92",
"'.	c #F9B98A",
").	c #FAB784",
"!.	c #F8AE77",
"~.	c #F9AC76",
"{.	c #F3A97B",
"].	c #F3BB97",
"^.	c #FDD7BD",
"/.	c #FEDCC3",
"(.	c #FFDBB4",
"_.	c #FED2A6",
":.	c #FEBF94",
"<.	c #E89574",
"[.	c #D07355",
"}.	c #C06F4F",
"|.	c #C09581",
"1.	c #F0F1E9",
"2.	c #E8FBF4",
"3.	c #EEF9F3",
"4.	c #FDFDFE",
"5.	c #FDF8FE",
"6.	c #EFE7ED",
"7.	c #A6969F",
"8.	c #F2E9EF",
"9.	c #F7F9F9",
"0.	c #FEFDFF",
"a.	c #B2A3AC",
"b.	c #CBBFC7",
"c.	c #FCFBFE",
"d.	c #F9F6F8",
"e.	c #F5F8F7",
"f.	c #F6FFFF",
"g.	c #69302D",
"h.	c #5D0100",
"i.	c #A0402C",
"j.	c #CC7D59",
"k.	c #BF6F4E",
"l.	c #C16645",
"m.	c #F6996A",
"n.	c #FCA264",
"o.	c #F8995F",
"p.	c #F3925E",
"q.	c #F29968",
"r.	c #F29F71",
"s.	c #E79469",
"t.	c #C26640",
"u.	c #CF6A43",
"v.	c #FD9366",
"w.	c #FF9B68",
"x.	c #F99B63",
"y.	c #F19F6E",
"z.	c #EEAB80",
"A.	c #F8C59B",
"B.	c #FBD3AB",
"C.	c #FCD2AA",
"D.	c #FCD9B1",
"E.	c #F8D1AA",
"F.	c #F9C596",
"G.	c #FFB371",
"H.	c #FEAC6B",
"I.	c #D69B78",
"J.	c #EAD5D1",
"K.	c #ECF6FA",
"L.	c #F1FAFB",
"M.	c #FFFBFF",
"N.	c #FDF4FB",
"O.	c #FDFAFB",
"P.	c #D3CACE",
"Q.	c #D8C7CE",
"R.	c #F6FAF8",
"S.	c #FEFCFF",
"T.	c #C4B4C0",
"U.	c #D3C8D3",
"V.	c #FAFBFF",
"W.	c #FBFBFF",
"X.	c #FBFDFF",
"Y.	c #F7FEFF",
"Z.	c #F8DEDA",
"`.	c #B76C57",
" +	c #D76E4E",
".+	c #F89463",
"++	c #F9A36A",
"@+	c #FFB783",
"#+	c #F5A27A",
"$+	c #D0744E",
"%+	c #EB9060",
"&+	c #E68655",
"*+	c #EA8855",
"=+	c #F1935B",
"-+	c #F0975D",
";+	c #D27B43",
">+	c #E18450",
",+	c #E98B5A",
"'+	c #DD7C50",
")+	c #D07242",
"!+	c #F9A06A",
"~+	c #FFA771",
"{+	c #F6A26B",
"]+	c #EE9D67",
"^+	c #EEA26D",
"/+	c #F2AA77",
"(+	c #ECA776",
"_+	c #EDAC7B",
":+	c #EEB17D",
"<+	c #F1A55D",
"[+	c #FFA45C",
"}+	c #DC855E",
"|+	c #D9A3A2",
"1+	c #F5F0FC",
"2+	c #E9F7FA",
"3+	c #F6FDFE",
"4+	c #FDFBFE",
"5+	c #F8F9F9",
"6+	c #D1CFD0",
"7+	c #CCB9C0",
"8+	c #F9FAF9",
"9+	c #FBFAFC",
"0+	c #F7F0F5",
"a+	c #D7C6D1",
"b+	c #E7E0EB",
"c+	c #EAF4FB",
"d+	c #F1F9FD",
"e+	c #F9FEFF",
"f+	c #F2FCFB",
"g+	c #F6F5F5",
"h+	c #CA9E8E",
"i+	c #F4A27A",
"j+	c #FAA77A",
"k+	c #F6B280",
"l+	c #F5C896",
"m+	c #FED8AD",
"n+	c #FFCFAB",
"o+	c #FFCCA8",
"p+	c #F8C39B",
"q+	c #F5BC9C",
"r+	c #F2B48F",
"s+	c #ECA878",
"t+	c #F3A86C",
"u+	c #FCAA68",
"v+	c #FAA664",
"w+	c #F9A76A",
"x+	c #EC9B65",
"y+	c #D38048",
"z+	c #E69056",
"A+	c #E0874E",
"B+	c #FAA26B",
"C+	c #FAA470",
"D+	c #F5A06F",
"E+	c #F59E6A",
"F+	c #FA9C62",
"G+	c #F99A5D",
"H+	c #F49E6C",
"I+	c #F89E63",
"J+	c #FF9D5E",
"K+	c #ED8F64",
"L+	c #B67466",
"M+	c #F5EBF0",
"N+	c #E4F6F9",
"O+	c #EAFCFA",
"P+	c #FDFFFF",
"Q+	c #F5F8F8",
"R+	c #E6E6E7",
"S+	c #BEAAB2",
"T+	c #E9E2E6",
"U+	c #FCF9FB",
"V+	c #DFCFD2",
"W+	c #C4AEB7",
"X+	c #FAF0F9",
"Y+	c #EAF0F6",
"Z+	c #F3F8FC",
"`+	c #FBFEFF",
" @	c #F8F9F8",
".@	c #EADFDD",
"+@	c #B47A60",
"@@	c #E99560",
"#@	c #F3BB8E",
"$@	c #FDD8B6",
"%@	c #FFDDC1",
"&@	c #FDCFB2",
"*@	c #FECEAD",
"=@	c #FBD0A7",
"-@	c #F7D3A7",
";@	c #FAD1AA",
">@	c #F9CAA1",
",@	c #F8C392",
"'@	c #FAB179",
")@	c #F9A468",
"!@	c #F9A166",
"~@	c #F69F67",
"{@	c #F9A470",
"]@	c #FDA56E",
"^@	c #F69A5A",
"/@	c #D37536",
"(@	c #D1753D",
"_@	c #EF9868",
":@	c #F8A67A",
"<@	c #F39F71",
"[@	c #FB9E68",
"}@	c #FF9D60",
"|@	c #FA9C65",
"1@	c #FAA06B",
"2@	c #FA9C63",
"3@	c #FDA26C",
"4@	c #D5926E",
"5@	c #F2DFDA",
"6@	c #F0F3FD",
"7@	c #EDF3F8",
"8@	c #FEFCFC",
"9@	c #F9FAFA",
"0@	c #F3F4F6",
"a@	c #A2929B",
"b@	c #C0B1BA",
"c@	c #C4B0B0",
"d@	c #AC9398",
"e@	c #FEF1F8",
"f@	c #EEF2F7",
"g@	c #F2F3F8",
"h@	c #FEF9FB",
"i@	c #FBF2F0",
"j@	c #EFD9D8",
"k@	c #E09D81",
"l@	c #F0A268",
"m@	c #F9CCA1",
"n@	c #FDD3B7",
"o@	c #F2B094",
"p@	c #F3A377",
"q@	c #F5A66E",
"r@	c #F4A873",
"s@	c #F3A476",
"t@	c #F4A66D",
"u@	c #F6A367",
"v@	c #F9A269",
"w@	c #FBA169",
"x@	c #FD9F69",
"y@	c #FC9F69",
"z@	c #FC9F68",
"A@	c #F99F65",
"B@	c #F4A471",
"C@	c #F9B385",
"D@	c #F6A36E",
"E@	c #F19359",
"F@	c #D1743D",
"G@	c #E3905E",
"H@	c #F5A370",
"I@	c #F59F69",
"J@	c #FAA062",
"K@	c #FBA05E",
"L@	c #F8A26B",
"M@	c #F9A46F",
"N@	c #FAA160",
"O@	c #EA9C62",
"P@	c #C3998A",
"Q@	c #F7EBFA",
"R@	c #EEEAF8",
"S@	c #F6F4F6",
"T@	c #FCFEFF",
"U@	c #F4F4F7",
"V@	c #E4DCE3",
"W@	c #D4C1CD",
"X@	c #F2F5FA",
"Y@	c #AEA19F",
"Z@	c #C2B0B5",
"`@	c #F9F8FC",
" #	c #E5F2F8",
".#	c #EAF5FB",
"+#	c #F0F5F5",
"@#	c #F9F7F7",
"##	c #D3B3A9",
"$#	c #DF916B",
"%#	c #FAA76E",
"&#	c #F3B787",
"*#	c #F0AE84",
"=#	c #EE9D6B",
"-#	c #F6A15D",
";#	c #F7A559",
">#	c #F9A160",
",#	c #FE9B68",
"'#	c #FD9D67",
")#	c #FC9F67",
"!#	c #FA9F69",
"~#	c #F9A06C",
"{#	c #F69F6A",
"]#	c #F5A067",
"^#	c #F9A464",
"/#	c #F5A35C",
"(#	c #E9A779",
"_#	c #F8D5C1",
":#	c #FFCEAA",
"<#	c #FAB079",
"[#	c #E1884B",
"}#	c #CD713A",
"|#	c #F39961",
"1#	c #FAA56C",
"2#	c #F8A668",
"3#	c #FFA864",
"4#	c #EF9965",
"5#	c #E59462",
"6#	c #FBA360",
"7#	c #F49958",
"8#	c #BE8469",
"9#	c #E7DAE0",
"0#	c #EFF2FB",
"a#	c #EBF0F3",
"b#	c #FBFEFE",
"c#	c #F6F6FA",
"d#	c #FAF3FA",
"e#	c #B7A0AF",
"f#	c #C4C0C8",
"g#	c #D4CECD",
"h#	c #DED5DD",
"i#	c #EEF5FC",
"j#	c #E4F0FD",
"k#	c #E6F2FC",
"l#	c #EBF5FB",
"m#	c #EAE0E9",
"n#	c #B67A69",
"o#	c #ED8F5B",
"p#	c #FCA368",
"q#	c #F59E66",
"r#	c #F9A067",
"s#	c #F9A165",
"t#	c #F99F66",
"u#	c #FAA069",
"v#	c #FAA169",
"w#	c #FAA166",
"x#	c #F8A264",
"y#	c #F7A262",
"z#	c #F9A162",
"A#	c #F59E5E",
"B#	c #FCA464",
"C#	c #F0A172",
"D#	c #F8C7AA",
"E#	c #FFDFBE",
"F#	c #F7D7AF",
"G#	c #F7C497",
"H#	c #F19C6B",
"I#	c #DC7947",
"J#	c #E48552",
"K#	c #DD8553",
"L#	c #BF6033",
"M#	c #E28B60",
"N#	c #E99B6D",
"O#	c #F2A367",
"P#	c #FA9F60",
"Q#	c #E89874",
"R#	c #E2CBBF",
"S#	c #E9F6F7",
"T#	c #EAF1FA",
"U#	c #F6F6FB",
"V#	c #FAF9FC",
"W#	c #F9F1FA",
"X#	c #BBABB5",
"Y#	c #BDAEB7",
"Z#	c #DDCBCC",
"`#	c #FBF1F9",
" $	c #EFEAF7",
".$	c #E9EFFC",
"+$	c #EAF0FC",
"@$	c #F1F6FE",
"#$	c #E2CDCB",
"$$	c #D28869",
"%$	c #FFA26B",
"&$	c #F99F64",
"*$	c #FAA065",
"=$	c #FAA167",
"-$	c #FAA168",
";$	c #F9A066",
">$	c #F7A168",
",$	c #F7A167",
"'$	c #F7A165",
")$	c #F9A163",
"!$	c #FB9F63",
"~$	c #FA9E65",
"{$	c #F89D64",
"]$	c #FEA667",
"^$	c #F4B072",
"/$	c #FBD2AB",
"($	c #FBDFCB",
"_$	c #F9DECA",
":$	c #FBCBAA",
"<$	c #EFA579",
"[$	c #D3764B",
"}$	c #AE4621",
"|$	c #EA865A",
"1$	c #F8A674",
"2$	c #F8A16F",
"3$	c #FAA66A",
"4$	c #E38A65",
"5$	c #D5AFA0",
"6$	c #F1FDFF",
"7$	c #E9EFFF",
"8$	c #EEEDFC",
"9$	c #F5F4FD",
"0$	c #F0EDF6",
"a$	c #F5E9EF",
"b$	c #C6AFB4",
"c$	c #A28385",
"d$	c #FFF7FE",
"e$	c #F1E8F9",
"f$	c #EBEFF9",
"g$	c #EBEFFA",
"h$	c #F0EFF8",
"i$	c #D5B09E",
"j$	c #ED9B6E",
"k$	c #FDA168",
"l$	c #F89F66",
"m$	c #F89F65",
"n$	c #F6A066",
"o$	c #F5A166",
"p$	c #F6A065",
"q$	c #F8A065",
"r$	c #F9A167",
"s$	c #FCA06A",
"t$	c #F99B68",
"u$	c #DA7F51",
"v$	c #E88B52",
"w$	c #F9A15D",
"x$	c #F1AF7D",
"y$	c #F8D0B1",
"z$	c #FBDCC7",
"A$	c #FDDEC9",
"B$	c #FED4B9",
"C$	c #FBBC9A",
"D$	c #E58C65",
"E$	c #DB794C",
"F$	c #F69F61",
"G$	c #FF9F61",
"H$	c #FD9D60",
"I$	c #FAA163",
"J$	c #F79C6E",
"K$	c #DCA289",
"L$	c #EAE3E3",
"M$	c #ECF2FF",
"N$	c #E7F0FB",
"O$	c #E7F3FA",
"P$	c #E7EFF2",
"Q$	c #FEF7F9",
"R$	c #B49DA0",
"S$	c #C0A5A8",
"T$	c #F7F6FB",
"U$	c #E9EAFB",
"V$	c #E9F0F8",
"W$	c #E9F0FA",
"X$	c #F5F1FA",
"Y$	c #DBAD8E",
"Z$	c #EF975E",
"`$	c #FBA16A",
" %	c #F7A065",
".%	c #F6A165",
"+%	c #F6A067",
"@%	c #F6A570",
"#%	c #F4A673",
"$%	c #EC9A6C",
"%%	c #D1794A",
"&%	c #E68752",
"*%	c #FDA26F",
"=%	c #F2A374",
"-%	c #F9C29B",
";%	c #FFE0C1",
">%	c #FDDDBC",
",%	c #F4C29D",
"'%	c #E09266",
")%	c #D67F46",
"!%	c #FB9E5C",
"~%	c #FF9D63",
"{%	c #FBA972",
"]%	c #CE805C",
"^%	c #C8A39D",
"/%	c #F2F5FD",
"(%	c #EAF1F4",
"_%	c #E6F2F3",
":%	c #E6F5F4",
"<%	c #E7F1F1",
"[%	c #EAEDED",
"}%	c #E6E0E3",
"|%	c #E7F3F7",
"1%	c #DEF1FD",
"2%	c #E7F2FB",
"3%	c #EBF3FB",
"4%	c #E7D7DC",
"5%	c #D5916A",
"6%	c #FCA265",
"7%	c #F89E68",
"8%	c #F8A066",
"9%	c #F29F67",
"0%	c #EFA56E",
"a%	c #FBC490",
"b%	c #F6BC8A",
"c%	c #E9A26E",
"d%	c #D8834F",
"e%	c #E58456",
"f%	c #FF9B6E",
"g%	c #FAA16D",
"h%	c #EDB075",
"i%	c #F3C790",
"j%	c #FCD7AD",
"k%	c #FED4B6",
"l%	c #F6BB94",
"m%	c #CE8350",
"n%	c #D6854A",
"o%	c #FBA16F",
"p%	c #F39F6D",
"q%	c #F1A86D",
"r%	c #E89568",
"s%	c #D79F8D",
"t%	c #F4EDEE",
"u%	c #F0EEF8",
"v%	c #ECEEF6",
"w%	c #ECEFF9",
"x%	c #ECEDF7",
"y%	c #F1F0FC",
"z%	c #F0F4FA",
"A%	c #E6F2F5",
"B%	c #DCF5FD",
"C%	c #E3EBF7",
"D%	c #F9FBFF",
"E%	c #C19A96",
"F%	c #D57E55",
"G%	c #FDA366",
"H%	c #F99F67",
"I%	c #F99F63",
"J%	c #FA9F63",
"K%	c #F99E64",
"L%	c #F8A86F",
"M%	c #F1A66F",
"N%	c #F8B985",
"O%	c #FDD4A2",
"P%	c #F2BD89",
"Q%	c #F5A971",
"R%	c #E28955",
"S%	c #D97847",
"T%	c #F69962",
"U%	c #F4A66A",
"V%	c #E9A46A",
"W%	c #F2AA79",
"X%	c #F9AE84",
"Y%	c #F6AB7C",
"Z%	c #EA9B63",
"`%	c #E49159",
" &	c #FFA572",
".&	c #FBA36B",
"+&	c #F8A363",
"@&	c #FFA66F",
"#&	c #CE7F5A",
"$&	c #E9CAC3",
"%&	c #F2F3FF",
"&&	c #EBEDFD",
"*&	c #F1EFFF",
"=&	c #F8F1FF",
"-&	c #FAEFFE",
";&	c #FDF8FF",
">&	c #FCF4F9",
",&	c #F4F9FA",
"'&	c #F9F7FF",
")&	c #FDE9EB",
"!&	c #D99781",
"~&	c #F59668",
"{&	c #F8A165",
"]&	c #F8A164",
"^&	c #F7A063",
"/&	c #F9A164",
"(&	c #FBA069",
"_&	c #D98350",
":&	c #DA8954",
"<&	c #E79A68",
"[&	c #FAB887",
"}&	c #F6B181",
"|&	c #F5A46D",
"1&	c #F4A15F",
"2&	c #E6914E",
"3&	c #D37D41",
"4&	c #EA9569",
"5&	c #F8A078",
"6&	c #FC9E6C",
"7&	c #FE9D5C",
"8&	c #FF9F5B",
"9&	c #FFA46B",
"0&	c #E58B5F",
"a&	c #F09769",
"b&	c #F39562",
"c&	c #F09762",
"d&	c #EF9A6A",
"e&	c #D67F58",
"f&	c #BB8678",
"g&	c #F6F6FF",
"h&	c #F7F4FF",
"i&	c #EADFE9",
"j&	c #D8C4CE",
"k&	c #DABEC8",
"l&	c #E3C8DB",
"m&	c #E9CAD1",
"n&	c #ECD7D4",
"o&	c #EEDFE4",
"p&	c #B98787",
"q&	c #D9805B",
"r&	c #F9A266",
"s&	c #F6A360",
"t&	c #F79E64",
"u&	c #F6A466",
"v&	c #F6A465",
"w&	c #F9A065",
"x&	c #FD9E67",
"y&	c #DC7E4D",
"z&	c #C7693C",
"A&	c #ED9167",
"B&	c #F4976B",
"C&	c #FBA160",
"D&	c #FFAC67",
"E&	c #F49B60",
"F&	c #D6784A",
"G&	c #E5895F",
"H&	c #F09662",
"I&	c #FFA866",
"J&	c #FFAD6E",
"K&	c #E07F5D",
"L&	c #7B2B1B",
"M&	c #853D24",
"N&	c #963E27",
"O&	c #8D472B",
"P&	c #824730",
"Q&	c #843A2A",
"R&	c #712A23",
"S&	c #BA9092",
"T&	c #DABABA",
"U&	c #8B6E6B",
"V&	c #4D3232",
"W&	c #5D2D3D",
"X&	c #68353A",
"Y&	c #734744",
"Z&	c #6A4A4C",
"`&	c #663235",
" *	c #934833",
".*	c #DF8766",
"+*	c #F99766",
"@*	c #FB9E61",
"#*	c #FFA66E",
"$*	c #FCA16D",
"%*	c #F99E69",
"&*	c #F7A169",
"**	c #F3A266",
"=*	c #F4A365",
"-*	c #FB9F68",
";*	c #F6A16A",
">*	c #F6A16B",
",*	c #FCA06C",
"'*	c #FC9D69",
")*	c #FF9D6B",
"!*	c #FF9E6C",
"~*	c #F69563",
"{*	c #D67949",
"]*	c #D47348",
"^*	c #F79567",
"/*	c #FA9F68",
"(*	c #F9A265",
"_*	c #FFA166",
":*	c #FC9B65",
"<*	c #E98D5B",
"[*	c #C4683A",
"}*	c #BE6339",
"|*	c #B06D4E",
"1*	c #732F25",
"2*	c #64201E",
"3*	c #8B463B",
"4*	c #B6573A",
"5*	c #D06B39",
"6*	c #D37A42",
"7*	c #F4986B",
"8*	c #FC9C73",
"9*	c #F99F6C",
"0*	c #F4A766",
"a*	c #F1A561",
"b*	c #F49E63",
"c*	c #FB9E6B",
"d*	c #F7A069",
"e*	c #F9A16A",
"f*	c #FCA16C",
"g*	c #FE9F6C",
"h*	c #FFA06C",
"i*	c #FBA468",
"j*	c #F49D5F",
"k*	c #ED925B",
"l*	c #C86A3A",
"m*	c #DF8653",
"n*	c #FBA26F",
"o*	c #F9A369",
"p*	c #FFA673",
"q*	c #F6936D",
"r*	c #7C1705",
"s*	c #7C3625",
"t*	c #C76E51",
"u*	c #DE7B53",
"v*	c #CA693D",
"w*	c #BF633B",
"x*	c #E88C57",
"y*	c #E98E54",
"z*	c #F9A267",
"A*	c #FEA86F",
"B*	c #F4A167",
"C*	c #F6A362",
"D*	c #F19C5B",
"E*	c #DD8848",
"F*	c #E89255",
"G*	c #E68F53",
"H*	c #F49D63",
"I*	c #FEA76D",
"J*	c #FCA36A",
"K*	c #FAA466",
"L*	c #F29B5B",
"M*	c #EC8E5C",
"N*	c #DB8154",
"O*	c #D6874F",
"P*	c #E79659",
"Q*	c #FFA778",
"R*	c #D07B64",
"S*	c #6E1913",
"T*	c #6C1F18",
"U*	c #963729",
"V*	c #EC9366",
"W*	c #FFB374",
"X*	c #E98F56",
"Y*	c #B24C23",
"Z*	c #ED8661",
"`*	c #E78B58",
" =	c #FAA561",
".=	c #F8A262",
"+=	c #F6A164",
"@=	c #F7A466",
"#=	c #E49459",
"$=	c #C16E36",
"%=	c #E08C58",
"&=	c #E1895C",
"*=	c #EF9265",
"==	c #FFA372",
"-=	c #FEA36A",
";=	c #F5A268",
">=	c #F6AA6A",
",=	c #DC8545",
"'=	c #D47440",
")=	c #C87153",
"!=	c #69241A",
"~=	c #AB5E46",
"{=	c #E88666",
"]=	c #E37B53",
"^=	c #D26E43",
"/=	c #F4996C",
"(=	c #CC6C39",
"_=	c #E5834A",
":=	c #F39462",
"<=	c #FA9F6F",
"[=	c #F6A16D",
"}=	c #F49F6B",
"|=	c #F69E6D",
"1=	c #DD7F55",
"2=	c #C7653C",
"3=	c #E7825E",
"4=	c #E4895D",
"5=	c #F1A364",
"6=	c #FFAC66",
"7=	c #FEA067",
"8=	c #CD7151",
"9=	c #6E2215",
"0=	c #7F2427",
"a=	c #902F20",
"b=	c #E5895A",
"c=	c #FFB175",
"d=	c #F2915D",
"e=	c #B7522B",
"f=	c #C05D34",
"g=	c #D67649",
"h=	c #F69E68",
"i=	c #FDA46B",
"j=	c #FCA069",
"k=	c #FFA46E",
"l=	c #F49460",
"m=	c #EB8E5D",
"n=	c #D06F41",
"o=	c #C9683C",
"p=	c #D67D55",
"q=	c #A55135",
"r=	c #682616",
"s=	c #8F4C2E",
"t=	c #DE8C68",
"u=	c #CA6E51",
"v=	c #C4654C",
"w=	c #FFA579",
"x=	c #F09360",
"y=	c #CC7345",
"z=	c #DA844C",
"A=	c #EE9556",
"B=	c #F59D5E",
"C=	c #FFB174",
"D=	c #FFB075",
"E=	c #FFB073",
"F=	c #FFA472",
"G=	c #B85D49",
"H=	c #6C1515",
"I=	c #8B5446",
"J=	c #73251B",
"K=	c #95402C",
"L=	c #E48F68",
"M=	c #FFAA79",
"N=	c #F59D70",
"O=	c #EB9061",
"P=	c #E48A59",
"Q=	c #C57046",
"R=	c #B26340",
"S=	c #B16947",
"T=	c #B36943",
"U=	c #A65D40",
"V=	c #7B3629",
"W=	c #6A230D",
"X=	c #BA6848",
"Y=	c #D57C5E",
"Z=	c #D1745E",
"`=	c #CE7260",
" -	c #923C2D",
".-	c #84382F",
"+-	c #813F39",
"@-	c #7B423B",
"                                                                                                ",
"                                                                                                ",
"                                                                                                ",
"                                                                                                ",
"                                                                                                ",
"                                                                                                ",
"                                                                                                ",
"                                                                                                ",
"                                                                                                ",
"                                                                                                ",
"                                                                                                ",
"                                                  . + @ # $                               % & * ",
"                                            = - ; > , ' ) ! ~ {                   ] ^ / ( _ : < ",
"[ } |                                   1 2 3 4 5 6 7 8 9 0 a b c             d e f g h i j k l ",
"m n o p q r s                   t u v w x y z A B C D E F G H I J K L     M N O P Q R S T U V W ",
"X Y Z `  ...+.@.#.$.        %.&.*.=.-.;.>.,.'.).!.~.{.].^./.9 (._.:.<.[.}.|.1.2.3.4.5.6.7.8.9.0.",
"R a.b.c.d.e.f.R W g.h.i.j.k.l.m.n.o.p.q.r.s.t.u.v.w.x.y.z.A.B.C.D.E.F.G.H.I.J.K.L.M.N.O.P.Q.R.S.",
"R T.U.V.W.X.Y.V Z.`. +.+++@+#+$+%+&+*+=+-+;+>+,+'+)+!+~+{+]+^+/+(+_+:+<+[+}+|+1+2+3+4+5+6+7+8+9+",
"0+a+b+c+d+e+f+g+h+i+j+k+l+m+n+o+p+q+r+s+t+u+v+w+x+y+z+A+B+C+D+E+F+G+H+I+J+K+L+M+N+O+P+Q+R+S+T+U+",
"V+W+X+Y+Z+`+ @.@+@@@#@$@%@&@*@=@-@;@>@,@'@)@!@~@{@]@^@/@(@_@:@<@[@}@|@1@2@3@4@5@6@7@8@9@0@a@b@R ",
"c@d@e@f@g@h@i@j@k@l@m@n@o@p@q@r@s@t@u@v@w@x@y@z@A@B@C@D@E@F@G@H@I@J@K@L@M@N@O@P@Q@R@S@T@U@V@W@X@",
"Y@Z@`@ #.#+#@###$#%#&#*#=#-#;#>#,#'#)#!#~#{#]#^#/#(#_#:#<#[#}#|#1#2#3#4#5#6#7#8#9#0#a#b#c#d#e#f#",
"g#h#i#j#k#l#m#n#o#p#~@q#r#s#s#s#t#u#v#w#x#y#z#A#B#C#D#E#F#G#H#I#J#K#L#M#N#O#P#Q#R#S#T#U#V#W#X#Y#",
"Z#`# $.$+$@$#$$$%$&$&$*$=$-$r#r#;$>$,$'$)$)$!$~${$]$^$/$($_$:$<$[$}$|$1$2$~@3$4$5$6$7$8$9$0$a$b$",
"c$d$e$f$g$h$i$j$k$A@;$=$;$;$l$m$m$n$o$p$q$r$s$t$u$v$w$x$y$z$A$B$C$D$E$F$G$H$I$J$K$L$M$N$O$P$Q$R$",
"S$T$U$V$W$X$Y$Z$`$;$=$;$=$=$;$;$;$ % %.% %+%@%#%$%%%&%*%=%-%D ;%>%,%'%)%!%~%t#{%]%^%/%(%_%:%<%[%",
"}%|%1%2%3%4%5%6%7%r#=$m$;$;$=$;$8%&$&$q$+%9%0%a%b%c%d%e%f%g%h%i%j%k%l%m%n%o%p%q%r%s%t%u%v%w%x%y%",
"z%A%B%C%D%E%F%G%H%=$=$;$;$;$=$;$m$I%J%K%v@L%M%N%O%P%Q%R%S%T%U%V%W%X%Y%Z%`% &.&+&@&#&$&%&&&*&=&-&",
";&>&,&'&)&!&~&{&]&;$;$;$;$;$;$;$;$^&/&K%(&_&:&<&[&}&|&1&2&3&4&5&6&7&8&9&0&a&b&c&d&e&f&g&h&i&j&k&",
"l&m&n&o&p&q&=.r&s&t&t&r$;$;$m$;$r$u&v&w&x&t$y&z&A&B&x@C&D&E&F&G&H&I&J&K&L&M&N&O&P&Q&R&S&T&U&V&  ",
"W&X&Y&Z&`& *.*+*@*#*$*%*&***=*A@-*;*>*,*'*)*!*~*{*]*^*/*(*_*:*<*[*}*|*1*              2*        ",
"            3*4*5*6*7*8*9*0*a*b*c*d*e*f*g*h*z@i*j*k*l*m*n*8%o*p*q*r*                            ",
"              s*t*u*v*w*x*y*z*A*B*C*D*E*F*G*H*I*J*K*L*M*N*O*P*Q*R*S*                            ",
"                T*U*V*W*X*Y*Z*`* =.=+=@=#=$=%=&=*===-=;=>=,='=)=!=                              ",
"                    ~={=]=^=/=(=_=:=<=n*[=}=|=1=2=3=4=5=6=7=8=9=                                ",
"                      0=a=b=c=d=e=f=g=o%h=i=j=k=l=m=n=o=p=q=r=                                  ",
"                          s=t=u=v=w=x=y=z=A=B=C=D=E=F=G=H=                                      ",
"                            I=J=K=L=M=N=O=P=Q=R=S=T=U=V=                                        ",
"                                  W=X=Y=Z=`= -.-+-@-                                            ",
"                                                                                                ",
"                                                                                                ",
"                                                                                                ",
"                                                                                                ",
"                                                                                                ",
"                                                                                                ",
"                                                                                                ",
"                                                                                                ",
"                                                                                                "};
