/* XPM */
static const char *address_book_icon[] = {
/* columns rows colors chars-per-pixel */
"16 16 124 2",
"   c #727E0A",
".  c #785977",
"X  c #CC0000",
"o  c #EF2929",
"O  c #698373",
"+  c #67837F",
"@  c #9DB029",
"#  c #EDD400",
"$  c #A2AB7B",
"%  c #FCE94F",
"&  c #6F6384",
"*  c #617296",
"=  c #5A7AA4",
"-  c #6C7CA0",
";  c #7A88A7",
":  c #7B8AA8",
">  c #7E8CA8",
",  c #7E8CAB",
"<  c #8F9E86",
"1  c #99A580",
"2  c #808DA9",
"3  c #808DAA",
"4  c #818FAB",
"5  c #828EAA",
"6  c #8290AC",
"7  c #8390AC",
"8  c #8B96AE",
"9  c #8F9FB8",
"0  c #9E9DBF",
"q  c #AB82AA",
"w  c #AA83AB",
"e  c #AC80A8",
"r  c #AC80A9",
"t  c #AC82AA",
"y  c #AA84AC",
"u  c #AA85AC",
"i  c #A986AD",
"p  c #A887AE",
"a  c #A987AE",
"s  c #A889AF",
"d  c #A789B0",
"f  c #A78AB1",
"g  c #A78BB1",
"h  c #A58DB3",
"j  c #A889B0",
"k  c #AC8BB1",
"l  c #A491B6",
"z  c #AB92B6",
"x  c #A7ADBD",
"c  c #A9ACB8",
"v  c #A8AEBC",
"b  c #ABB0BE",
"n  c #ABB1BE",
"m  c #ACB1BE",
"M  c #B5B5B6",
"N  c #B7B7B7",
"B  c #B9B9B9",
"V  c #9E9DC0",
"C  c #9D9EC0",
"Z  c #9D9FC1",
"A  c #9BA2C3",
"S  c #9CA1C3",
"D  c #9CA2C3",
"F  c #9BA3C4",
"G  c #9AA4C5",
"H  c #9AA5C5",
"J  c #99A7C7",
"K  c #9AA6C6",
"L  c #9FABC3",
"P  c #95AFCD",
"I  c #96AECC",
"U  c #95AFCE",
"Y  c #95B0CE",
"T  c #95B1CF",
"R  c #9DB7D2",
"E  c #AAACC9",
"W  c #AFB5C2",
"Q  c #A9B3CF",
"!  c #AFBAC9",
"~  c #B4B9C4",
"^  c #A5BDD7",
"/  c #A8B8D0",
"(  c #A9B8D0",
")  c #A9B9D0",
"_  c #A9B9D1",
"`  c #A7BFD8",
"'  c #A8BFD8",
"]  c #A9C1D9",
"[  c #ACC3DA",
"{  c #B1C0D6",
"}  c #B4C9DE",
"|  c #BCC8D9",
" . c #B7CAE0",
".. c #B7CBE0",
"X. c #B8CBE0",
"o. c #B9CBE0",
"O. c #BACDE2",
"+. c #BFCCE0",
"@. c #C1C1C3",
"#. c #DDDDDD",
"$. c gray87",
"%. c #C3CFE0",
"&. c #C3D0E2",
"*. c #C0D2E4",
"=. c #C6D6E7",
"-. c #CBD7E5",
";. c #CBD8E7",
":. c #C7D7E8",
">. c #CEDAE8",
",. c #CEDBE8",
"<. c #CEDBE9",
"1. c #CFDBE9",
"2. c #CCDAEA",
"3. c #CFDCE9",
"4. c #CFDCEA",
"5. c #CFDCEC",
"6. c #D0DCEA",
"7. c #D1DEEB",
"8. c #D2DEEB",
"9. c #D3DFEC",
"0. c #D7E3F0",
"q. c #D7E4F0",
"w. c #D8E4F1",
"e. c None",
/* pixels */
"e.= = = = = = = = = = = = = e.e.",
"= - 8.=.O.} ^ ^ ` ` ' ' R < # e.",
"= | 6.&.5.] G d r u V T [ < % # ",
"= %.4.{ 2.Q y F U J p A [ 1 % # ",
"= -.3./ 2.z Z 0 q w J f [ $ % # ",
"= 7.1./ 2.t I y C i P r [ O @   ",
"= 0.<.( 2.r P r S a D s [ O @   ",
"= w.,.) 2.k G l j h y K [ + @   ",
"= w.,._ 2.E p J Y T T T [ & o X ",
"= q.>.+.2.] H g e i T T [ & o X ",
"= 0.9.5.:.*. .....X.X.X.o.& o X ",
"= ;., 5 2 > ; : 4 6 7 3 * . X e.",
"= L M N N N N N N N B ! = = e.e.",
"= 9 @.#.#.#.#.#.$.$.$.~ = = e.e.",
"= = 8 x W b b n n m m v c = e.e.",
"e.= = = = = = = = = = = = = e.e."
};
