/* XPM */
static const char *net_icon[] = {
/* columns rows colors chars-per-pixel */
"16 16 160 2",
"   c #576F95",
".  c #58749D",
"X  c #5A769F",
"o  c #5876A0",
"O  c #5977A0",
"+  c #5877A2",
"@  c #5978A2",
"#  c #5979A3",
"$  c #5A79A3",
"%  c #5E7AA3",
"&  c #5A79A4",
"*  c #5A7AA4",
"=  c #5B7AA4",
"-  c #5D7DA6",
";  c #5E7DA6",
":  c #627BA3",
">  c #627CA5",
",  c #617FA6",
"<  c #617FA8",
"1  c #637FA8",
"2  c #4F80B6",
"3  c #5685B7",
"4  c #5686BA",
"5  c #5988BC",
"6  c #5C8ABD",
"7  c #6983A6",
"8  c #6380A8",
"9  c #6984A9",
"0  c #708AAD",
"q  c #6D90B7",
"w  c #7591B4",
"e  c #7591B5",
"r  c #7792B6",
"t  c #7994B6",
"y  c #7A95B7",
"u  c #7E97B9",
"i  c #628FC1",
"p  c #6B96C6",
"a  c #6C96C5",
"s  c #719BC9",
"d  c #759FCB",
"f  c #819ABA",
"g  c #839BBB",
"h  c #9DA6AE",
"j  c #AEB5BC",
"k  c #8BA7C7",
"l  c #84A6CA",
"z  c #83A7CE",
"x  c #93ABC7",
"c  c #94ACC8",
"v  c #9AB0CB",
"b  c #9CB2CB",
"n  c #9BB2CC",
"m  c #9DB3CD",
"M  c #9FB4CE",
"N  c #80A7D1",
"B  c #93B6DC",
"V  c #A4B5C9",
"C  c #A5B7C9",
"Z  c #A0B4CD",
"A  c #A3B6CE",
"S  c #BABFC4",
"D  c #B8BFC6",
"F  c #B5BEC8",
"G  c #A3B8D0",
"H  c #A9BCD1",
"J  c #ABBDD3",
"K  c #AABED3",
"L  c #AFBFD4",
"P  c #A2BDDA",
"I  c #9CBDE0",
"U  c #B7C2CD",
"Y  c #BCC4CC",
"T  c #B3C1D0",
"R  c #B1C0D5",
"E  c #B1C2D6",
"W  c #BEC7D0",
"Q  c #BCC8D4",
"!  c #BECAD6",
"~  c #B5C5D8",
"^  c #B4C7DC",
"/  c #B7C8DC",
"(  c #BBC9DA",
")  c #BECBDA",
"_  c #B8C9DD",
"`  c #BCCDDF",
"'  c #ACCAE9",
"]  c #BECFE1",
"[  c #B3CCE8",
"{  c #B1CEEC",
"}  c #B5D1EE",
"|  c #BED4EB",
" . c #BCD7F2",
".. c #C0C6CE",
"X. c #C7CDD2",
"o. c #C8CED4",
"O. c #C8CFD5",
"+. c #C6CFD8",
"@. c #CED0D1",
"#. c #CED1D3",
"$. c #CAD5DF",
"%. c gray82",
"&. c LightGray",
"*. c #D7D9DB",
"=. c #DCDDDF",
"-. c #C3D2E3",
";. c #CCD7E2",
":. c #CFD9E2",
">. c #CCD9E7",
",. c #CEDBEA",
"<. c #CCDDEF",
"1. c #DBDEE0",
"2. c #D4DDE9",
"3. c #D5DFE9",
"4. c #D6DFE9",
"5. c #D5DFEB",
"6. c #DFE1E3",
"7. c #DCE1E5",
"8. c #DEE2E7",
"9. c #D9E1E9",
"0. c #DCE3E9",
"q. c #DBE4EF",
"w. c #DCE4ED",
"e. c #C9E1F9",
"r. c #CCE3FA",
"t. c #D4E5F6",
"y. c #D2E5F9",
"u. c #D5E8FC",
"i. c #DAEAFA",
"p. c #DEEDFB",
"a. c #DAEBFC",
"s. c #DEEEFF",
"d. c #DFEFFF",
"f. c gray88",
"g. c #E2E2E2",
"h. c #E0E3E4",
"j. c #E3E4E5",
"k. c #E2E4E6",
"l. c #E0E5EB",
"z. c #E4E6E8",
"x. c #EDEEEF",
"c. c #EFEFEF",
"v. c #E6EBF0",
"b. c #E6EBF4",
"n. c #E0EFFF",
"m. c #E2EFFE",
"M. c #E1F0FF",
"N. c #E2F1FF",
"B. c #E3F1FF",
"V. c #F1F2F3",
"C. c #F4F4F5",
"Z. c gray96",
"A. c #F6F6F6",
"S. c #F0F4F8",
"D. c #F8F9F9",
"F. c #F9F9F9",
"G. c #FBFBFB",
"H. c #FDFDFD",
"J. c #FEFEFE",
"K. c None",
/* pixels */
"K.K.K.K.K.o = * @ + K.K.K.K.K.K.",
"K.K.K.% g ( w.b.5.E u # K.K.K.K.",
"K.K., R l.:.S ) | ! 9.A $ K.K.K.",
"K.9 L 8.#.m.p.t.Q ..1.v.Z * K.K.",
": f S.j.$.N.B.i.+.*.C.G.3.t K.K.",
"0 ~ h.<.n.M.M.a.X.W V F z.G * K.",
"8 2.K r.s.d.d.,.H.J.H.k.=.` * K.",
"= q.'  .e.u.y.O.J.J.J.F.j -.* K.",
"; >.U o.[ } { H D.V.J.c.@._ * K.",
"1 J 7.J.6.P I B l k Z.g.h m * K.",
"> y 4.J.J.x.z N d a f.&.C e K.K.",
"K.< b 0.A.D s p i 5 %.Y c * K.K.",
"K.K.- v ;.q 6 4 2 3 T x # K.K.K.",
"K.K.K.7 r M / ] ^ n w O K.K.K.K.",
"K.K.K.K.  X $ & @ . K.K.K.K.K.K.",
"K.K.K.K.K.K.K.K.K.K.K.K.K.K.K.K."
};
