/* XPM */
static const char *plus_icon[] = {
/* columns rows colors chars-per-pixel */
"16 16 19 1",
"  c #3465A4",
". c #7DA6D7",
"X c #7FA8D7",
"o c #83AAD8",
"O c #86ADD9",
"+ c #90B3DA",
"@ c #92B4DA",
"# c #94B6DB",
"$ c #95B7DB",
"% c #9FBEE0",
"& c #B4CCE5",
"* c #B5CCE6",
"= c #B6CCE6",
"- c #B6CDE6",
"; c #B7CEE6",
": c #BBD1E7",
"> c #BCD1E7",
", c #C0D3E8",
"< c None",
/* pixels */
"<<<<<<<<<<<<<<<<",
"<<<<<<<<<<<<<<<<",
"<<<<<<    <<<<<<",
"<<<<<< ;; <<<<<<",
"<<<<<< ;; <<<<<<",
"<<<<<< ;; <<<<<<",
"<<     ;;     <<",
"<< ,:>;;;;-*= <<",
"<< &$#@+OoX.% <<",
"<<     OO     <<",
"<<<<<< ;O <<<<<<",
"<<<<<< ;O <<<<<<",
"<<<<<< ;; <<<<<<",
"<<<<<<    <<<<<<",
"<<<<<<<<<<<<<<<<",
"<<<<<<<<<<<<<<<<"
};
