/* XPM */
static const char * save_icon[] = {
"16 16 21 1",
" 	c None",
".	c #6E706B",
"+	c #3D698A",
"@	c #38678B",
"#	c #667173",
"$	c #627075",
"%	c #4E6A7D",
"&	c #6B716E",
"*	c #FFFFFF",
"=	c #ABCBE2",
"-	c #547D9B",
";	c #72756B",
">	c #FDFDFD",
",	c #3D6B8E",
"'	c #ABC8DF",
")	c #CACACA",
"!	c #FAFAFA",
"~	c #ACCBE3",
"{	c #3B6B8F",
"]	c #3F6C8E",
"^	c #FCFCFC",
"    . +@@@      ",
"      @@@@      ",
".#$...@@@%......",
"&*****@==-*****.",
";>****@==,*****.",
".*@@@@@==@@@@@*.",
".**@@======@@**.",
".***@@==='@@***.",
".))!*@@~={@**)).",
".))*!!@]@@!^*)).",
".))****@@****)).",
".))**********)).",
".))**********)).",
".)))))))))))))).",
".)))))))))))))).",
"................"};
