/* XPM */
static const char * time_icon[] = {
"16 16 8 1",
" 	c None",
".	c #2E3436",
"+	c #636561",
"@	c #FFFFFF",
"#	c #FDFDFD",
"$	c #FBFBFA",
"%	c #646662",
"&	c #61635F",
"  ..  ..  ..    ",
" +.+++.+++.+++  ",
"+@.@@@.@##.@@@+ ",
"+@..@@..@@..@@+.",
"+@@@@@@@@@@@@@+.",
"+@@@@.@@..@@@@+.",
"+@@@..@.@@.@@@+.",
"+@@@@.@@@@.@@@+.",
"+@@@@.@@..@@@@+.",
"+@@@@.@.@@@@@@+.",
"+@@@@.@....@#$+.",
"+@@@@@@@@@@@@@+.",
"%@@@@@@@@@@@@@+.",
"+&&&&&&&&&&&&&+.",
" .@@@@@@@@@@@@@.",
" ..............."};
