/* XPM */
static const char *time_icon[] = {
/* columns rows colors chars-per-pixel */
"16 16 59 1",
"  c #2E3436",
". c #32383A",
"X c #383E40",
"o c #393E40",
"O c #3B4042",
"+ c #404648",
"@ c #414748",
"# c #4A5052",
"$ c #4C5153",
"% c #4D5254",
"& c #555753",
"* c #61635F",
"= c #636561",
"- c #646662",
"; c #686A66",
": c #6E706C",
"> c #7C7E79",
", c #818485",
"< c #888A85",
"1 c #939591",
"2 c #959798",
"3 c #9B9C9A",
"4 c #A0A2A3",
"5 c #AAABA8",
"6 c #B0B1AE",
"7 c #B0B2B3",
"8 c #B8B9B7",
"9 c #C2C3C1",
"0 c #C3C4C2",
"q c #C2C4C4",
"w c #C5C6C6",
"e c #C8C8C8",
"r c #CACAC9",
"t c #C8C9CA",
"y c #C9C9CA",
"u c #CACBCA",
"i c #CDCECD",
"p c #CECFCE",
"a c #D2D2D2",
"s c gray84",
"d c gray85",
"f c #DFDFDF",
"g c gray88",
"h c #E1E1E1",
"j c #E2E2E2",
"k c #E3E3E2",
"l c gray89",
"z c #E4E4E4",
"x c #E6E6E6",
"c c #E7E7E7",
"v c #E9E9E9",
"b c #ECECEC",
"n c #EEEEEE",
"m c #F1F1F1",
"M c #F3F3F3",
"N c #FBFBFA",
"B c #FDFDFD",
"V c gray100",
"C c None",
/* pixels */
"CC<<CCC<CCC<CCCC",
"C<<<<<<<<<<<<<CC",
"<V<0VV<sBB<sBV<C",
"<V<1xx<<kx<<xV<C",
"<VsdxxsszxsssV<C",
">Vxzt,j$+7ccxV>C",
">Vnx% f2e#xxpV>C",
">Vnxf fq@4xxrV>C",
";Vxxf f.ywxi9V;C",
";Vxxf fOoXxi9V;C",
"=VxllglhhhaMBN=C",
"-Vxvbnmxpu8M63-C",
"-VVVVVVVVVVV5:-C",
"=*************-C",
"C <&&&&&&&&&& CC",
"C             CC"
};
