/* XPM */
static const char *trash_icon[] = {
/* columns rows colors chars-per-pixel */
"16 16 130 2",
"   c #535A22",
".  c #545B23",
"X  c #575E26",
"o  c #5B6129",
"O  c #5D6329",
"+  c #61682A",
"@  c #666D2D",
"#  c #6C732F",
"$  c #6F7731",
"%  c #737B32",
"&  c #767F33",
"*  c #494D4C",
"=  c #5C5E59",
"-  c #5E605C",
";  c #61635E",
":  c #62645F",
">  c #636561",
",  c #646663",
"<  c #666863",
"1  c #686A65",
"2  c #686A66",
"3  c #6A6C68",
"4  c #6B6D68",
"5  c #6D6F6B",
"6  c #70726D",
"7  c #70726E",
"8  c #727470",
"9  c #737571",
"0  c #757773",
"q  c #767B77",
"w  c #787A75",
"e  c #797B77",
"r  c #788134",
"t  c #7A8235",
"y  c #798237",
"u  c #7F865E",
"i  c #81893A",
"p  c #8B943E",
"a  c #879042",
"s  c #899245",
"d  c #8B9348",
"f  c #8C9548",
"g  c #909946",
"h  c #929C4A",
"j  c #959E49",
"k  c #969F4A",
"l  c #919A4C",
"z  c #949D4F",
"x  c #8A9259",
"c  c #8A915C",
"v  c #939A59",
"b  c #98A247",
"n  c #96A04F",
"m  c #9CA64D",
"M  c #98A150",
"N  c #9AA252",
"B  c #9FA956",
"V  c #A5AE49",
"C  c #A0A956",
"Z  c #A6AF55",
"A  c #A8B154",
"S  c #ADB757",
"D  c #A9B259",
"F  c #ADB75C",
"G  c #AEB75D",
"H  c #B2BD50",
"J  c #B3BE50",
"K  c #B3BD5A",
"L  c #888E69",
"P  c #8C9162",
"I  c #9FA46B",
"U  c #A7AF67",
"Y  c #A1A76E",
"T  c #A9B260",
"R  c #AAB263",
"E  c #AAB264",
"W  c #B2BB64",
"Q  c #A3AB72",
"!  c #A5AC72",
"~  c #A8AD75",
"^  c #ADB17E",
"/  c #ACB27E",
"(  c #B5C051",
")  c #B8C257",
"_  c #B9C35D",
"`  c #BBC55F",
"'  c #BBC561",
"]  c #BCC661",
"[  c #BCC662",
"{  c #BDC763",
"}  c #B8C065",
"|  c #BDC765",
" . c #BBC469",
".. c #BAC36D",
"X. c #BDC675",
"o. c #C7D07E",
"O. c #989A94",
"+. c #B2B881",
"@. c #B5BB82",
"#. c #B7BE81",
"$. c #B8BE84",
"%. c #A9AD94",
"&. c #B6BBA6",
"*. c #B1B4AD",
"=. c #BCC286",
"-. c #BFC687",
";. c #C3CA89",
":. c #C7CC8B",
">. c #C9D181",
",. c #CAD184",
"<. c #C9D18D",
"1. c #CCD28E",
"2. c #C3CA99",
"3. c #C4CB9E",
"4. c #CDD590",
"5. c #CBD09E",
"6. c #CCD29D",
"7. c #CCD19F",
"8. c #D0D691",
"9. c #D1D793",
"0. c #C8CEA5",
"q. c #CDD2A1",
"w. c #D2D7B9",
"e. c #D3D8BB",
"r. c #D3D9BB",
"t. c #D4D9BB",
"y. c #D4D9BC",
"u. c #D6DBC8",
"i. c #DBE0D7",
"p. c None",
/* pixels */
"p.p.p.p.p.p.p.p.p.p.p.p.p.p.p.p.",
"p.p.. . . . . . . . . . . . p.p.",
"p.u i.i.i.i.i.i.i.i.i.i.i.i.L p.",
". i.q = - ; > < 2 4 5 6 8 *.i.. ",
". i.* : , 1 3 5 7 9 0 w e O.i.. ",
". &.i.i.i.i.i.i.i.i.i.i.i.i.%.. ",
". . v t r & % $ # @ + O o X .   ",
"p.. o.( ( J V Z E b p i y x . p.",
"p.. o.( ( H } u.u.5.C j f c . p.",
"p.. >.( ( 6...W 7.q.B N z I . p.",
"p.. ,.) ] t.u.F D T #.M l ! . p.",
"p.. 8.| { r.X.G 0.R w.n d ~ . p.",
"p.. 9.[ '  .q.2.y.e.U h s Q . p.",
"p.. 4.` _ K S A 3.m k g a Y . p.",
"p.. ^ 1.<.:.;.-.=.$.@.+./ P . p.",
"p.p.. . . . . . . . . . . . p.p."
};
